<mxfile host="www.draw.io" modified="2019-10-24T16:40:45.918Z" agent="Mozilla/5.0 (Windows NT 10.0; Win64; x64) AppleWebKit/537.36 (KHTML, like Gecko) Chrome/77.0.3865.120 Safari/537.36" etag="RJPYqLzxsVjAIps0g8uq" version="12.1.4" type="github" pages="1">
  <diagram name="Page-1" id="e7e014a7-5840-1c2e-5031-d8a46d1fe8dd">
    <mxGraphModel dx="1408" dy="748" grid="1" gridSize="10" guides="1" tooltips="1" connect="1" arrows="1" fold="1" page="1" pageScale="1" pageWidth="1169" pageHeight="826" background="#ffffff" math="0" shadow="0">
      <root>
        <mxCell id="0"/>
        <mxCell id="1" parent="0"/>
        <mxCell id="wJqa6mBJ4jpfj04B4-Os-42" value="Cloud Profiling" style="html=1;align=left;verticalAlign=top;" vertex="1" parent="1">
          <mxGeometry x="360" y="80" width="320" height="360" as="geometry"/>
        </mxCell>
        <mxCell id="wJqa6mBJ4jpfj04B4-Os-43" value="" style="shape=component;jettyWidth=8;jettyHeight=4;" vertex="1" parent="wJqa6mBJ4jpfj04B4-Os-42">
          <mxGeometry x="1" width="20" height="20" relative="1" as="geometry">
            <mxPoint x="-27" y="7" as="offset"/>
          </mxGeometry>
        </mxCell>
        <mxCell id="wJqa6mBJ4jpfj04B4-Os-45" value="&lt;div style=&quot;box-sizing: border-box ; width: 100% ; background: #e4e4e4 ; padding: 2px&quot;&gt;Storage&lt;/div&gt;&lt;table style=&quot;width: 100% ; font-size: 1em&quot; cellpadding=&quot;2&quot; cellspacing=&quot;0&quot;&gt;&lt;tbody&gt;&lt;tr&gt;&lt;td&gt;Counter1&lt;/td&gt;&lt;td&gt;32&lt;/td&gt;&lt;/tr&gt;&lt;tr&gt;&lt;td&gt;Counter2&lt;/td&gt;&lt;td&gt;124124&lt;/td&gt;&lt;/tr&gt;&lt;tr&gt;&lt;td&gt;Counter3&lt;/td&gt;&lt;td&gt;54362323&lt;/td&gt;&lt;/tr&gt;&lt;tr&gt;&lt;td&gt;.....&lt;/td&gt;&lt;td&gt;&lt;br&gt;&lt;/td&gt;&lt;/tr&gt;&lt;/tbody&gt;&lt;/table&gt;" style="verticalAlign=top;align=left;overflow=fill;html=1;" vertex="1" parent="wJqa6mBJ4jpfj04B4-Os-42">
          <mxGeometry x="36" y="65" width="214" height="90" as="geometry"/>
        </mxCell>
        <mxCell id="wJqa6mBJ4jpfj04B4-Os-44" value="&lt;blockquote style=&quot;margin: 0 0 0 40px ; border: none ; padding: 0px&quot;&gt;&lt;b&gt;Thread&lt;/b&gt;&lt;/blockquote&gt;&lt;br&gt;Aims to push storage to HiView" style="shape=process;whiteSpace=wrap;html=1;backgroundOutline=1;align=left;" vertex="1" parent="wJqa6mBJ4jpfj04B4-Os-42">
          <mxGeometry x="36" y="240" width="214" height="81" as="geometry"/>
        </mxCell>
        <mxCell id="wJqa6mBJ4jpfj04B4-Os-56" value="" style="endArrow=classic;startArrow=classic;html=1;entryX=0.5;entryY=1;entryDx=0;entryDy=0;" edge="1" parent="wJqa6mBJ4jpfj04B4-Os-42" source="wJqa6mBJ4jpfj04B4-Os-44" target="wJqa6mBJ4jpfj04B4-Os-45">
          <mxGeometry width="50" height="50" relative="1" as="geometry">
            <mxPoint x="-391.11111111111103" y="430" as="sourcePoint"/>
            <mxPoint x="-346.6666666666666" y="380" as="targetPoint"/>
          </mxGeometry>
        </mxCell>
        <mxCell id="wJqa6mBJ4jpfj04B4-Os-57" value="Read counters&lt;br&gt;and reset" style="text;html=1;resizable=0;points=[];align=center;verticalAlign=middle;labelBackgroundColor=#ffffff;" vertex="1" connectable="0" parent="wJqa6mBJ4jpfj04B4-Os-56">
          <mxGeometry x="-0.3657" y="-1" relative="1" as="geometry">
            <mxPoint x="44" y="-15.5" as="offset"/>
          </mxGeometry>
        </mxCell>
        <mxCell id="wJqa6mBJ4jpfj04B4-Os-49" value="JIT" style="rounded=1;whiteSpace=wrap;html=1;align=center;" vertex="1" parent="1">
          <mxGeometry x="110" y="120" width="115" height="40" as="geometry"/>
        </mxCell>
        <mxCell id="wJqa6mBJ4jpfj04B4-Os-50" value="GC" style="rounded=1;whiteSpace=wrap;html=1;align=center;" vertex="1" parent="1">
          <mxGeometry x="110" y="200" width="115" height="40" as="geometry"/>
        </mxCell>
        <mxCell id="wJqa6mBJ4jpfj04B4-Os-51" value="Interpreter" style="rounded=1;whiteSpace=wrap;html=1;align=center;" vertex="1" parent="1">
          <mxGeometry x="110" y="280" width="115" height="40" as="geometry"/>
        </mxCell>
        <mxCell id="wJqa6mBJ4jpfj04B4-Os-52" value="" style="endArrow=classic;html=1;exitX=1;exitY=0.5;exitDx=0;exitDy=0;entryX=0;entryY=0.25;entryDx=0;entryDy=0;" edge="1" parent="1" source="wJqa6mBJ4jpfj04B4-Os-49" target="wJqa6mBJ4jpfj04B4-Os-45">
          <mxGeometry width="50" height="50" relative="1" as="geometry">
            <mxPoint x="390" y="590" as="sourcePoint"/>
            <mxPoint x="440" y="540" as="targetPoint"/>
          </mxGeometry>
        </mxCell>
        <mxCell id="wJqa6mBJ4jpfj04B4-Os-53" value="" style="endArrow=classic;html=1;entryX=0;entryY=0.5;entryDx=0;entryDy=0;exitX=1;exitY=0.5;exitDx=0;exitDy=0;" edge="1" parent="1" source="wJqa6mBJ4jpfj04B4-Os-50" target="wJqa6mBJ4jpfj04B4-Os-45">
          <mxGeometry width="50" height="50" relative="1" as="geometry">
            <mxPoint x="350" y="570" as="sourcePoint"/>
            <mxPoint x="130" y="500" as="targetPoint"/>
          </mxGeometry>
        </mxCell>
        <mxCell id="wJqa6mBJ4jpfj04B4-Os-54" value="" style="endArrow=classic;html=1;entryX=0;entryY=0.75;entryDx=0;entryDy=0;exitX=1;exitY=0.5;exitDx=0;exitDy=0;" edge="1" parent="1" source="wJqa6mBJ4jpfj04B4-Os-51" target="wJqa6mBJ4jpfj04B4-Os-45">
          <mxGeometry width="50" height="50" relative="1" as="geometry">
            <mxPoint x="70" y="630" as="sourcePoint"/>
            <mxPoint x="120" y="580" as="targetPoint"/>
          </mxGeometry>
        </mxCell>
        <mxCell id="wJqa6mBJ4jpfj04B4-Os-60" value="HiView(imonitor)" style="rounded=1;whiteSpace=wrap;html=1;align=center;" vertex="1" parent="1">
          <mxGeometry x="430" y="510" width="160" height="70" as="geometry"/>
        </mxCell>
        <mxCell id="wJqa6mBJ4jpfj04B4-Os-61" value="" style="endArrow=classic;html=1;exitX=0.5;exitY=1;exitDx=0;exitDy=0;entryX=0.46;entryY=0.029;entryDx=0;entryDy=0;entryPerimeter=0;" edge="1" parent="1" source="wJqa6mBJ4jpfj04B4-Os-44" target="wJqa6mBJ4jpfj04B4-Os-60">
          <mxGeometry width="50" height="50" relative="1" as="geometry">
            <mxPoint x="170" y="550" as="sourcePoint"/>
            <mxPoint x="220" y="500" as="targetPoint"/>
          </mxGeometry>
        </mxCell>
        <mxCell id="wJqa6mBJ4jpfj04B4-Os-68" value="Send storage data to HiView" style="text;html=1;resizable=0;points=[];align=center;verticalAlign=middle;labelBackgroundColor=#ffffff;" vertex="1" connectable="0" parent="wJqa6mBJ4jpfj04B4-Os-61">
          <mxGeometry x="0.351" y="1" relative="1" as="geometry">
            <mxPoint as="offset"/>
          </mxGeometry>
        </mxCell>
      </root>
    </mxGraphModel>
  </diagram>
</mxfile>
